Normalized EMG Linear Envelopes
nRows=54
nColumns=17

endheader
time	        VM	        VL	        RF	       GRA	        TA	   ADDLONG	   SEMIMEM	      BFLH	        GM	        GL	       TFL	   GLUTMAX	   GLUTMED	      PIRI	    OBTINT	        QF	
3.49	  0.050495	  0.177089	  0.541889	  0.306614	  0.817708	  0.547684	  0.019899	  0.093143	  0.086221	  0.049914	  0.365241	  0.027789	  0.066152	  0.000000	  0.000000	  0.000000	
3.4905	  0.051833	  0.177501	  0.545251	  0.305196	  0.814950	  0.545390	  0.018770	  0.090546	  0.084709	  0.049237	  0.362687	  0.027867	  0.066050	  0.000000	  0.000000	  0.000000	
3.491	  0.053196	  0.177916	  0.548583	  0.303790	  0.812100	  0.543068	  0.017657	  0.087984	  0.083213	  0.048567	  0.360143	  0.027947	  0.065965	  0.000000	  0.000000	  0.000000	
3.4915	  0.054585	  0.178335	  0.551885	  0.302396	  0.809163	  0.540717	  0.016560	  0.085456	  0.081734	  0.047904	  0.357608	  0.028029	  0.065898	  0.000000	  0.000000	  0.000000	
3.492	  0.055999	  0.178757	  0.555157	  0.301013	  0.806141	  0.538336	  0.015479	  0.082963	  0.080273	  0.047248	  0.355082	  0.028112	  0.065848	  0.000000	  0.000000	  0.000000	
3.4925	  0.057438	  0.179182	  0.558399	  0.299641	  0.803038	  0.535926	  0.014416	  0.080507	  0.078828	  0.046599	  0.352564	  0.028198	  0.065815	  0.000000	  0.000000	  0.000000	
3.493	  0.058903	  0.179611	  0.561610	  0.298280	  0.799857	  0.533485	  0.013369	  0.078087	  0.077402	  0.045956	  0.350053	  0.028285	  0.065799	  0.000000	  0.000000	  0.000000	
3.4935	  0.060394	  0.180043	  0.564790	  0.296930	  0.796601	  0.531013	  0.012339	  0.075705	  0.075994	  0.045320	  0.347551	  0.028376	  0.065801	  0.000000	  0.000000	  0.000000	
3.494	  0.061910	  0.180480	  0.567938	  0.295589	  0.793274	  0.528509	  0.011325	  0.073360	  0.074604	  0.044691	  0.345057	  0.028468	  0.065820	  0.000000	  0.000000	  0.000000	
3.4945	  0.063453	  0.180919	  0.571053	  0.294259	  0.789877	  0.525974	  0.010329	  0.071053	  0.073233	  0.044068	  0.342570	  0.028564	  0.065856	  0.000000	  0.000000	  0.000000	
3.495	  0.065022	  0.181363	  0.574136	  0.292938	  0.786413	  0.523406	  0.009349	  0.068784	  0.071881	  0.043452	  0.340093	  0.028662	  0.065911	  0.000000	  0.000000	  0.000000	
3.4955	  0.066617	  0.181810	  0.577184	  0.291627	  0.782885	  0.520804	  0.008386	  0.066554	  0.070549	  0.042843	  0.337624	  0.028764	  0.065982	  0.000000	  0.000000	  0.000000	
3.496	  0.068239	  0.182260	  0.580198	  0.290324	  0.779295	  0.518168	  0.007441	  0.064364	  0.069237	  0.042240	  0.335163	  0.028868	  0.066072	  0.000000	  0.000000	  0.000000	
3.4965	  0.069887	  0.182715	  0.583176	  0.289029	  0.775645	  0.515496	  0.006513	  0.062214	  0.067944	  0.041644	  0.332712	  0.028976	  0.066179	  0.000000	  0.000000	  0.000000	
3.497	  0.071562	  0.183172	  0.586118	  0.287742	  0.771939	  0.512788	  0.005601	  0.060103	  0.066672	  0.041054	  0.330270	  0.029087	  0.066304	  0.000000	  0.000000	  0.000000	
3.4975	  0.073263	  0.183633	  0.589022	  0.286463	  0.768179	  0.510042	  0.004707	  0.058034	  0.065421	  0.040472	  0.327836	  0.029202	  0.066447	  0.000000	  0.000000	  0.000000	
3.498	  0.074991	  0.184098	  0.591889	  0.285189	  0.764366	  0.507257	  0.003831	  0.056005	  0.064190	  0.039895	  0.325413	  0.029321	  0.066608	  0.000000	  0.000000	  0.000000	
3.4985	  0.076745	  0.184565	  0.594716	  0.283922	  0.760502	  0.504432	  0.002972	  0.054017	  0.062982	  0.039326	  0.322998	  0.029443	  0.066787	  0.000000	  0.000000	  0.000000	
3.499	  0.078526	  0.185035	  0.597504	  0.282659	  0.756590	  0.501565	  0.002130	  0.052071	  0.061794	  0.038764	  0.320593	  0.029569	  0.066984	  0.000000	  0.000000	  0.000000	
3.4995	  0.080334	  0.185507	  0.600250	  0.281400	  0.752631	  0.498656	  0.001306	  0.050167	  0.060629	  0.038208	  0.318198	  0.029699	  0.067200	  0.000000	  0.000000	  0.000000	
3.5	  0.082168	  0.185982	  0.602954	  0.280145	  0.748627	  0.495703	  0.000499	  0.048305	  0.059486	  0.037660	  0.315813	  0.029834	  0.067434	  0.000000	  0.000000	  0.000000	
3.5005	  0.084028	  0.186459	  0.605615	  0.278892	  0.744578	  0.492706	  0.000000	  0.046486	  0.058366	  0.037118	  0.313439	  0.029973	  0.067686	  0.000000	  0.000000	  0.000000	
3.501	  0.085914	  0.186938	  0.608233	  0.277640	  0.740486	  0.489663	  0.000000	  0.044709	  0.057268	  0.036583	  0.311075	  0.030116	  0.067958	  0.000000	  0.000000	  0.000000	
3.5015	  0.087827	  0.187419	  0.610806	  0.276388	  0.736352	  0.486574	  0.000000	  0.042975	  0.056194	  0.036055	  0.308722	  0.030264	  0.068248	  0.000000	  0.000000	  0.000000	
3.502	  0.089765	  0.187902	  0.613333	  0.275135	  0.732177	  0.483437	  0.000000	  0.041285	  0.055143	  0.035534	  0.306381	  0.030417	  0.068557	  0.000000	  0.000000	  0.000000	
3.5025	  0.091729	  0.188385	  0.615814	  0.273880	  0.727961	  0.480253	  0.000000	  0.039638	  0.054115	  0.035020	  0.304051	  0.030575	  0.068886	  0.000000	  0.000000	  0.000000	
3.503	  0.093719	  0.188870	  0.618247	  0.272622	  0.723705	  0.477019	  0.000000	  0.038035	  0.053111	  0.034513	  0.301733	  0.030738	  0.069234	  0.000000	  0.000000	  0.000000	
3.5035	  0.095735	  0.189355	  0.620631	  0.271359	  0.719412	  0.473736	  0.000000	  0.036476	  0.052132	  0.034013	  0.299427	  0.030906	  0.069602	  0.000000	  0.000000	  0.000000	
3.504	  0.097775	  0.189840	  0.622965	  0.270091	  0.715080	  0.470404	  0.000000	  0.034961	  0.051176	  0.033519	  0.297132	  0.031080	  0.069989	  0.000000	  0.000000	  0.000000	
3.5045	  0.099840	  0.190326	  0.625247	  0.268815	  0.710713	  0.467021	  0.000000	  0.033491	  0.050245	  0.033032	  0.294850	  0.031260	  0.070396	  0.000000	  0.000000	  0.000000	
3.505	  0.101931	  0.190812	  0.627477	  0.267532	  0.706312	  0.463588	  0.000000	  0.032065	  0.049339	  0.032553	  0.292581	  0.031445	  0.070824	  0.000000	  0.000000	  0.000000	
3.5055	  0.104045	  0.191297	  0.629655	  0.266239	  0.701877	  0.460103	  0.000000	  0.030684	  0.048458	  0.032080	  0.290324	  0.031637	  0.071271	  0.000000	  0.000000	  0.000000	
3.506	  0.106184	  0.191783	  0.631778	  0.264936	  0.697411	  0.456567	  0.000000	  0.029349	  0.047602	  0.031614	  0.288080	  0.031835	  0.071738	  0.000000	  0.000000	  0.000000	
3.5065	  0.108347	  0.192268	  0.633847	  0.263621	  0.692914	  0.452979	  0.000000	  0.028058	  0.046772	  0.031155	  0.285849	  0.032040	  0.072226	  0.000000	  0.000000	  0.000000	
3.507	  0.110533	  0.192752	  0.635862	  0.262293	  0.688389	  0.449340	  0.000000	  0.026813	  0.045967	  0.030703	  0.283632	  0.032252	  0.072734	  0.000000	  0.000000	  0.000000	
3.5075	  0.112742	  0.193236	  0.637821	  0.260952	  0.683837	  0.445651	  0.000000	  0.025614	  0.045188	  0.030258	  0.281429	  0.032470	  0.073262	  0.000000	  0.000000	  0.000000	
3.508	  0.114975	  0.193718	  0.639724	  0.259596	  0.679259	  0.441913	  0.000000	  0.024461	  0.044435	  0.029820	  0.279240	  0.032696	  0.073811	  0.000000	  0.000000	  0.000000	
3.5085	  0.117229	  0.194199	  0.641569	  0.258224	  0.674657	  0.438125	  0.000000	  0.023353	  0.043709	  0.029390	  0.277065	  0.032930	  0.074380	  0.000000	  0.000000	  0.000000	
3.509	  0.119506	  0.194678	  0.643357	  0.256837	  0.670032	  0.434290	  0.000000	  0.022292	  0.043009	  0.028967	  0.274904	  0.033171	  0.074969	  0.000000	  0.000000	  0.000000	
3.5095	  0.121805	  0.195157	  0.645086	  0.255433	  0.665387	  0.430409	  0.000000	  0.021278	  0.042336	  0.028551	  0.272758	  0.033420	  0.075578	  0.000000	  0.000000	  0.000000	
3.51	  0.124125	  0.195634	  0.646755	  0.254011	  0.660721	  0.426481	  0.000000	  0.020309	  0.041691	  0.028142	  0.270626	  0.033677	  0.076208	  0.000000	  0.000000	  0.000000	
3.5105	  0.126467	  0.196110	  0.648363	  0.252570	  0.656036	  0.422510	  0.000000	  0.019388	  0.041072	  0.027741	  0.268508	  0.033943	  0.076858	  0.000000	  0.000000	  0.000000	
3.511	  0.128830	  0.196585	  0.649909	  0.251110	  0.651333	  0.418497	  0.000000	  0.018513	  0.040481	  0.027348	  0.266405	  0.034218	  0.077528	  0.000000	  0.000000	  0.000000	
3.5115	  0.131214	  0.197059	  0.651391	  0.249630	  0.646614	  0.414443	  0.000000	  0.017686	  0.039918	  0.026962	  0.264315	  0.034501	  0.078219	  0.000000	  0.000000	  0.000000	
3.512	  0.133618	  0.197532	  0.652810	  0.248128	  0.641881	  0.410350	  0.000000	  0.016906	  0.039383	  0.026584	  0.262239	  0.034793	  0.078930	  0.000000	  0.000000	  0.000000	
3.5125	  0.136043	  0.198005	  0.654163	  0.246605	  0.637134	  0.406220	  0.000000	  0.016173	  0.038877	  0.026214	  0.260177	  0.035095	  0.079661	  0.000000	  0.000000	  0.000000	
3.513	  0.138488	  0.198476	  0.655452	  0.245058	  0.632374	  0.402055	  0.000000	  0.015488	  0.038399	  0.025852	  0.258127	  0.035406	  0.080412	  0.000000	  0.000000	  0.000000	
3.5135	  0.140953	  0.198946	  0.656674	  0.243487	  0.627605	  0.397857	  0.000000	  0.014851	  0.037949	  0.025498	  0.256090	  0.035727	  0.081183	  0.000000	  0.000000	  0.000000	
3.514	  0.143438	  0.199416	  0.657828	  0.241892	  0.622827	  0.393627	  0.000000	  0.014261	  0.037529	  0.025152	  0.254065	  0.036057	  0.081974	  0.000000	  0.000000	  0.000000	
3.5145	  0.145942	  0.199886	  0.658914	  0.240273	  0.618042	  0.389367	  0.000000	  0.013720	  0.037138	  0.024814	  0.252051	  0.036398	  0.082785	  0.000000	  0.000000	  0.000000	
3.515	  0.148465	  0.200355	  0.659929	  0.238629	  0.613254	  0.385079	  0.000000	  0.013227	  0.036776	  0.024484	  0.250048	  0.036749	  0.083616	  0.000000	  0.000000	  0.000000	
3.5155	  0.151007	  0.200824	  0.660873	  0.236960	  0.608462	  0.380765	  0.000000	  0.012782	  0.036444	  0.024163	  0.248055	  0.037111	  0.084467	  0.000000	  0.000000	  0.000000	
3.516	  0.153567	  0.201294	  0.661745	  0.235268	  0.603670	  0.376426	  0.000000	  0.012386	  0.036142	  0.023851	  0.246070	  0.037483	  0.085337	  0.000000	  0.000000	  0.000000	
3.5165	  0.156145	  0.201764	  0.662541	  0.233552	  0.598879	  0.372063	  0.000000	  0.012039	  0.035871	  0.023547	  0.244094	  0.037866	  0.086228	  0.000000	  0.000000	  0.000000	
